<svg width="24" height="24" viewBox="0 0 24 24" fill="none" xmlns="http://www.w3.org/2000/svg">
<path d="M11.6848 2.55634C11.6848 2.97695 11.6848 3.37543 11.6848 3.79604" stroke="#E8A523" stroke-width="0.5" stroke-miterlimit="10" stroke-linecap="round" stroke-linejoin="round"/>
<path d="M15.6698 4.50447C15.9575 4.19454 16.2675 3.86248 16.5553 3.55255" stroke="#E8A523" stroke-width="0.5" stroke-miterlimit="10" stroke-linecap="round" stroke-linejoin="round"/>
<path d="M18.415 6.67402C18.8356 6.43051 19.2563 6.18699 19.6769 5.94348" stroke="#E8A523" stroke-width="0.5" stroke-miterlimit="10" stroke-linecap="round" stroke-linejoin="round"/>
<path d="M8.11966 4.63731C7.92042 4.23883 7.72118 3.81822 7.54408 3.41974" stroke="#E8A523" stroke-width="0.5" stroke-miterlimit="10" stroke-linecap="round" stroke-linejoin="round"/>
<path d="M5.5304 6.60734C5.15406 6.4081 4.77772 6.18673 4.37924 5.98749" stroke="#E8A523" stroke-width="0.5" stroke-miterlimit="10" stroke-linecap="round" stroke-linejoin="round"/>
<path d="M20.0908 11.3169C20.1794 11.0291 20.0466 10.5199 20.2458 10.4314C20.755 10.2321 21.9725 10.1879 22.5038 10.0772C22.7031 10.0329 22.9023 9.98863 23.1015 10.0108C23.3008 10.0329 23.5 10.0993 23.6107 10.2543C23.7214 10.4092 23.7214 10.6085 23.6328 10.7856C23.5664 10.9627 23.4115 11.0955 23.2786 11.2062C22.858 11.5604 22.3489 11.8482 21.8176 12.0253C21.4855 12.136 21.1534 12.2467 20.8214 12.2909C20.445 12.3574 20.1572 12.3795 20.1794 12.0032C20.2015 11.8261 19.9801 11.6711 20.0908 11.3169Z" fill="#FEED53"/>
<mask id="path-7-inside-1_199_7407" fill="white">
<path d="M20 10.4534C20.8191 10.4313 21.5275 10.2542 22.1252 10.0992C22.6786 9.96641 23.7191 9.83358 23.6527 10.6527C23.6306 10.8076 23.4977 10.9847 23.4092 11.1176C23.1657 11.4053 22.8336 11.6046 22.4794 11.7595C21.771 12.0695 20.9298 12.2466 20.1328 12.2687"/>
</mask>
<path d="M19.9865 9.95362C19.7104 9.96108 19.4927 10.1909 19.5002 10.4669C19.5076 10.743 19.7375 10.9607 20.0135 10.9533L19.9865 9.95362ZM22.1252 10.0992L22.0085 9.61296L21.9997 9.61523L22.1252 10.0992ZM23.6527 10.6527L24.1477 10.7234C24.1491 10.7133 24.1502 10.7032 24.1511 10.6931L23.6527 10.6527ZM23.4092 11.1176L23.7909 11.4405C23.8032 11.426 23.8146 11.4108 23.8252 11.3949L23.4092 11.1176ZM20.1189 11.7689C19.8429 11.7766 19.6254 12.0066 19.633 12.2826C19.6407 12.5586 19.8707 12.7762 20.1467 12.7685L20.1189 11.7689ZM20 10.4534L20.0135 10.9533C20.8946 10.9294 21.6514 10.7386 22.2507 10.5832L22.1252 10.0992L21.9997 9.61523C21.4036 9.76978 20.7436 9.93315 19.9865 9.95362L20 10.4534ZM22.1252 10.0992L22.2419 10.5854C22.5066 10.5219 22.8232 10.4768 23.0406 10.5124C23.1452 10.5295 23.1667 10.5561 23.1596 10.5486C23.1372 10.5254 23.1619 10.5191 23.1543 10.6123L23.6527 10.6527L24.1511 10.6931C24.1767 10.3767 24.0962 10.0798 23.8802 9.85529C23.6793 9.64653 23.4186 9.561 23.2022 9.52556C22.7776 9.456 22.2973 9.54374 22.0085 9.61304L22.1252 10.0992ZM23.6527 10.6527L23.1577 10.582C23.1599 10.5666 23.1626 10.5645 23.1566 10.5789C23.1509 10.5924 23.1409 10.6126 23.1245 10.6406C23.0872 10.7042 23.0497 10.7554 22.9932 10.8402L23.4092 11.1176L23.8252 11.3949C23.8572 11.3469 23.9304 11.2431 23.9872 11.1463C24.0431 11.051 24.1225 10.8996 24.1477 10.7234L23.6527 10.6527ZM23.4092 11.1176L23.0275 10.7946C22.8539 10.9998 22.5999 11.1611 22.279 11.3015L22.4794 11.7595L22.6798 12.2176C23.0674 12.0481 23.4775 11.8109 23.7909 11.4405L23.4092 11.1176ZM22.4794 11.7595L22.279 11.3015C21.6344 11.5835 20.8572 11.7484 20.1189 11.7689L20.1328 12.2687L20.1467 12.7685C21.0024 12.7448 21.9076 12.5555 22.6798 12.2176L22.4794 11.7595Z" fill="#E8A523" mask="url(#path-7-inside-1_199_7407)"/>
<path d="M3.6059 11.7437C3.51735 11.4559 3.65017 10.9468 3.45093 10.8582C2.94177 10.659 1.7242 10.6147 1.1929 10.504C0.993661 10.4597 0.794422 10.4155 0.595184 10.4376C0.395945 10.4597 0.196708 10.5261 0.08602 10.6811C-0.024668 10.8361 -0.0246677 11.0353 0.0638828 11.2124C0.130296 11.3895 0.285258 11.5223 0.418084 11.633C0.838698 11.9872 1.34786 12.275 1.87916 12.4521C2.21123 12.5628 2.54329 12.6735 2.87536 12.7178C3.2517 12.7842 3.53948 12.8063 3.51735 12.43C3.49521 12.2529 3.71659 12.0979 3.6059 11.7437Z" fill="#FEED53"/>
<mask id="path-10-inside-2_199_7407" fill="white">
<path d="M3.69768 10.88C2.87859 10.8579 2.17018 10.6808 1.57247 10.5258C1.01903 10.393 -0.0214374 10.2602 0.0449753 11.0792C0.0671129 11.2342 0.19994 11.4113 0.28849 11.5441C0.532004 11.8319 0.864067 12.0312 1.21827 12.1861C1.92667 12.4961 2.7679 12.6732 3.56485 12.6953"/>
</mask>
<path d="M3.71119 10.3802C3.98723 10.3877 4.20496 10.6175 4.1975 10.8935C4.19003 11.1696 3.96021 11.3873 3.68417 11.3798L3.71119 10.3802ZM1.57247 10.5258L1.68917 10.0395L1.69795 10.0418L1.57247 10.5258ZM0.0449753 11.0792L-0.449999 11.15C-0.451437 11.1399 -0.452568 11.1298 -0.453389 11.1197L0.0449753 11.0792ZM0.28849 11.5441L-0.0932031 11.8671C-0.105507 11.8526 -0.116969 11.8373 -0.127535 11.8215L0.28849 11.5441ZM3.57874 12.1955C3.85477 12.2032 4.07233 12.4331 4.06466 12.7092C4.05699 12.9852 3.827 13.2028 3.55097 13.1951L3.57874 12.1955ZM3.69768 10.88L3.68417 11.3798C2.80307 11.356 2.04631 11.1652 1.44699 11.0098L1.57247 10.5258L1.69795 10.0418C2.29405 10.1964 2.9541 10.3597 3.71119 10.3802L3.69768 10.88ZM1.57247 10.5258L1.45578 11.012C1.19109 10.9485 0.874444 10.9034 0.657097 10.939C0.552454 10.9561 0.530934 10.9827 0.538098 10.9752C0.560467 10.952 0.535785 10.9457 0.54334 11.0388L0.0449753 11.0792L-0.453389 11.1197C-0.479041 10.8033 -0.398569 10.5064 -0.182497 10.2819C0.0183716 10.0731 0.279106 9.98757 0.495458 9.95213C0.920101 9.88258 1.40041 9.97031 1.68916 10.0396L1.57247 10.5258ZM0.0449753 11.0792L0.53995 11.0085C0.537751 10.9931 0.535089 10.9911 0.541099 11.0054C0.546781 11.019 0.556795 11.0392 0.573176 11.0671C0.610502 11.1308 0.647959 11.182 0.704515 11.2668L0.28849 11.5441L-0.127535 11.8215C-0.159529 11.7735 -0.23276 11.6697 -0.28952 11.5729C-0.345399 11.4775 -0.424829 11.3261 -0.449999 11.15L0.0449753 11.0792ZM0.28849 11.5441L0.670183 11.2212C0.843812 11.4264 1.09782 11.5877 1.41868 11.728L1.21827 12.1861L1.01786 12.6442C0.630311 12.4747 0.220195 12.2375 -0.0932031 11.8671L0.28849 11.5441ZM1.21827 12.1861L1.41868 11.728C2.06326 12.0101 2.84049 12.175 3.57874 12.1955L3.56485 12.6953L3.55097 13.1951C2.69531 13.1713 1.79008 12.982 1.01786 12.6442L1.21827 12.1861Z" fill="#E8A523" mask="url(#path-10-inside-2_199_7407)"/>
<path d="M9.80951 3.96723C14.6283 2.71242 19.5522 5.60162 20.8071 10.4204C22.0619 15.2392 19.1726 20.163 14.3539 21.418C9.53509 22.6728 4.61125 19.7835 3.35633 14.9648C2.10145 10.146 4.99068 5.2221 9.80951 3.96723Z" fill="#FEED53" stroke="#E8A523" stroke-width="0.5"/>
<path d="M12.3927 7.71428C12.282 7.75855 12.1713 7.8471 12.127 7.86924C11.8171 8.04634 11.485 8.02421 11.1751 7.8471C11.0866 7.80283 10.998 7.69214 10.8873 7.69214C10.7324 7.71428 10.7766 7.89138 10.8209 7.97993C10.9759 8.28986 11.3079 8.51123 11.64 8.53337C11.9942 8.55551 12.3484 8.35627 12.5255 8.06848C12.5698 8.00207 12.614 7.89138 12.614 7.78069C12.5919 7.64787 12.4812 7.64786 12.3927 7.71428Z" fill="#E8A523"/>
<path d="M10.1993 6.91751C10 7.00606 9.73437 6.96179 9.64582 6.674C9.5794 6.45262 9.71223 6.18697 9.93361 6.12056C10.1107 6.05415 10.3321 6.1427 10.4206 6.3198C10.5756 6.58545 10.4206 6.82896 10.1993 6.91751Z" fill="#E8A523"/>
<path d="M13.9222 7.0062C13.723 7.09475 13.4574 7.05047 13.3688 6.76268C13.3024 6.54131 13.4352 6.27566 13.6566 6.20924C13.8337 6.14283 14.0551 6.23138 14.1436 6.40848C14.2765 6.67413 14.1215 6.91765 13.9222 7.0062Z" fill="#E8A523"/>
<path d="M9.62473 7.93582C9.62473 8.64422 9.04915 9.24193 8.31861 9.24193C7.58807 9.24193 7.0125 8.66636 7.0125 7.93582C7.0125 7.22741 7.58807 6.6297 8.31861 6.6297C9.04915 6.6297 9.62473 7.20528 9.62473 7.93582Z" fill="#FDC05C"/>
<path d="M16.9715 8.35629C16.9715 9.06469 16.396 9.66241 15.6654 9.66241C14.957 9.66241 14.3593 9.08683 14.3593 8.35629C14.3593 7.64789 14.9349 7.05017 15.6654 7.05017C16.396 7.07231 16.9715 7.64789 16.9715 8.35629Z" fill="#FDC05C"/>
</svg>
